<svg width="630" height="630" viewBox="0 0 630 630" fill="none" xmlns="http://www.w3.org/2000/svg">
    <rect width="630" height="630" fill="#000000"/>
    <path d="M414.932 215.207C410.752 211.267 406.496 207.371 402.162 203.517C364.032 169.527 309.082 141.577 256.942 148.777C245.649 150.337 235.129 153.727 225.382 158.947C225.313 158.984 225.233 158.998 225.154 158.986C225.076 158.974 225.004 158.937 224.949 158.881C224.894 158.826 224.86 158.754 224.852 158.677C224.843 158.6 224.861 158.523 224.902 158.457C257.482 103.587 325.952 107.857 376.442 131.997C402.922 144.664 426.549 161.511 447.322 182.537C447.456 182.674 447.53 182.857 447.53 183.047C447.53 183.238 447.456 183.421 447.322 183.557L415.552 215.317C415.443 215.43 415.381 215.58 415.381 215.737C415.381 215.894 415.443 216.045 415.552 216.157C443.542 243.947 466.172 278.537 477.122 316.507C490.292 362.147 483.442 412.577 439.472 438.667C439.404 438.706 439.324 438.721 439.245 438.711C439.166 438.701 439.094 438.665 439.038 438.611C438.982 438.556 438.946 438.485 438.936 438.408C438.926 438.332 438.942 438.254 438.982 438.187C442.022 432.834 444.482 426.847 446.362 420.227C455.632 387.647 447.982 350.917 433.912 320.997C421.492 294.571 404.542 270.547 383.062 248.927C382.991 248.857 382.934 248.773 382.896 248.68C382.857 248.587 382.837 248.488 382.837 248.387C382.837 248.287 382.857 248.188 382.896 248.095C382.934 248.002 382.991 247.918 383.062 247.847L414.942 215.967C414.993 215.917 415.033 215.856 415.061 215.79C415.088 215.724 415.101 215.653 415.1 215.582C415.099 215.511 415.084 215.441 415.055 215.377C415.026 215.312 414.985 215.255 414.932 215.207Z" fill="#FFFFFF"/>
    <path d="M182.569 448.09C182.501 448.021 182.463 447.927 182.463 447.83C182.463 447.733 182.501 447.639 182.569 447.57L214.249 415.89C214.44 415.699 214.547 415.44 214.547 415.17C214.547 414.9 214.44 414.641 214.249 414.45C175.809 376.06 143.249 319.91 147.349 263.75C148.289 250.87 151.969 236.83 158.189 225.58C189.909 168.13 261.109 173.03 312.059 197.84C338.139 210.547 361.383 227.24 381.789 247.92C381.828 247.958 381.858 248.003 381.878 248.053C381.899 248.103 381.91 248.156 381.91 248.21C381.91 248.264 381.899 248.317 381.878 248.367C381.858 248.417 381.828 248.462 381.789 248.5L350.089 280.2C349.906 280.386 349.802 280.637 349.802 280.898C349.802 281.158 349.906 281.407 350.089 281.59C387.659 319.15 419.559 373.51 417.259 428.22C415.799 462.89 398.399 492.82 366.479 507.39C333.539 522.42 292.389 515.91 260.439 501.88C231.019 488.967 205.063 471.037 182.569 448.09ZM226.669 228.01C209.389 231.67 198.299 243.02 194.859 259.79C189.839 284.27 199.259 312.34 211.289 334.08C220.869 351.393 232.903 367.29 247.389 381.77C247.471 381.851 247.567 381.916 247.673 381.96C247.78 382.004 247.893 382.027 248.007 382.027C248.122 382.027 248.235 382.004 248.34 381.96C248.445 381.916 248.54 381.851 248.619 381.77L280.229 350.16C280.294 350.095 280.37 350.044 280.454 350.009C280.538 349.974 280.628 349.956 280.719 349.956C280.811 349.956 280.901 349.974 280.985 350.009C281.069 350.044 281.145 350.095 281.209 350.16C304.659 373.84 335.17 393.8 367.77 401.41C367.846 401.428 367.926 401.426 368.002 401.404C368.078 401.381 368.146 401.34 368.201 401.284C368.257 401.228 368.297 401.159 368.317 401.083C368.338 401.006 368.339 400.926 368.319 400.85C360.269 368.36 339.259 339.5 315.539 316.15C315.355 315.969 315.106 315.869 314.847 315.871C314.589 315.873 314.342 315.977 314.159 316.16L281.629 348.69C281.381 348.934 281.048 349.07 280.702 349.07C280.355 349.07 280.024 348.934 279.779 348.69C262.719 331.723 249.189 312.823 239.189 291.99C230.289 273.44 224.699 252.65 226.629 232.07C226.759 230.67 227.269 229.47 227.279 228.51C227.279 228.434 227.263 228.358 227.23 228.289C227.198 228.22 227.15 228.159 227.092 228.111C227.033 228.063 226.965 228.029 226.892 228.011C226.819 227.994 226.743 227.993 226.669 228.01ZM262.159 229.15C262.077 229.129 261.991 229.13 261.909 229.152C261.827 229.174 261.752 229.217 261.691 229.276C261.63 229.335 261.585 229.408 261.56 229.49C261.535 229.571 261.532 229.657 261.549 229.74C264.069 241 268.406 252.11 274.559 263.07C285.126 281.87 298.436 299.043 314.49 314.59C314.637 314.734 314.835 314.814 315.042 314.812C315.248 314.81 315.445 314.727 315.589 314.58L348.219 281.95C348.461 281.71 348.598 281.383 348.6 281.042C348.602 280.701 348.469 280.373 348.229 280.13C324.869 256.41 295.109 237.71 262.159 229.15ZM369.249 435.7C359.743 437.193 350.033 437.02 340.119 435.18C305.059 428.67 273.869 407.71 248.869 383.26C248.625 383.02 248.295 382.887 247.952 382.888C247.61 382.89 247.282 383.027 247.039 383.27L215.729 414.58C215.598 414.713 215.524 414.893 215.524 415.08C215.524 415.267 215.598 415.447 215.729 415.58C241.749 441.56 276.999 464.35 314.139 468.87C339.749 471.98 363.549 463.81 369.579 436.06C369.592 436.014 369.592 435.966 369.58 435.92C369.569 435.874 369.546 435.831 369.513 435.796C369.48 435.76 369.439 435.733 369.393 435.716C369.347 435.699 369.298 435.694 369.249 435.7Z" fill="#FFFFFF"/>
</svg>